<svg width="25" height="24" viewBox="0 0 25 24" fill="none" xmlns="http://www.w3.org/2000/svg">
<path d="M12.125 0C9.75163 0 7.43155 0.703788 5.45816 2.02236C3.48477 3.34094 1.9467 5.21508 1.03845 7.4078C0.130199 9.60051 -0.107441 12.0133 0.355582 14.3411C0.818604 16.6688 1.96149 18.807 3.63972 20.4853C5.31795 22.1635 7.45615 23.3064 9.78392 23.7694C12.1117 24.2324 14.5245 23.9948 16.7172 23.0865C18.9099 22.1783 20.7841 20.6402 22.1026 18.6668C23.4212 16.6934 24.125 14.3734 24.125 12C24.125 8.8174 22.8607 5.76515 20.6103 3.51472C18.3598 1.26428 15.3076 0 12.125 0ZM15.1661 10.8632L14.9671 12.5353C14.9585 12.6129 14.9215 12.6845 14.8632 12.7364C14.8049 12.7883 14.7294 12.8168 14.6513 12.8163H12.9145V17.7742C12.9149 17.8334 12.8919 17.8904 12.8505 17.9327C12.8091 17.975 12.7526 17.9992 12.6934 18H10.925C10.8956 17.9996 10.8665 17.9934 10.8394 17.9817C10.8124 17.9701 10.7879 17.9532 10.7674 17.9321C10.7469 17.911 10.7307 17.886 10.7198 17.8587C10.7089 17.8313 10.7035 17.8021 10.7039 17.7726L10.7134 12.8163H9.39816C9.31441 12.8163 9.23409 12.783 9.17486 12.7238C9.11564 12.6646 9.08237 12.5843 9.08237 12.5005V10.83C9.08237 10.7462 9.11564 10.6659 9.17486 10.6067C9.23409 10.5475 9.31441 10.5142 9.39816 10.5142H10.7039V8.89421C10.7039 7.02 11.8203 6 13.4513 6H14.7887C14.8724 6 14.9528 6.03327 15.012 6.09249C15.0712 6.15171 15.1045 6.23203 15.1045 6.31579V7.72263C15.1045 7.80638 15.0712 7.8867 15.012 7.94593C14.9528 8.00515 14.8724 8.03842 14.7887 8.03842H13.9692C13.0818 8.05263 12.9145 8.47737 12.9145 9.1121V10.5095H14.8597C14.9038 10.5105 14.9472 10.5207 14.987 10.5395C15.0269 10.5582 15.0624 10.5851 15.0913 10.6184C15.1201 10.6518 15.1417 10.6907 15.1546 10.7329C15.1674 10.775 15.1714 10.8194 15.1661 10.8632Z" fill="white"/>
</svg>
