<svg width="25" height="24" viewBox="0 0 25 24" fill="none" xmlns="http://www.w3.org/2000/svg">
<path d="M12.1239 13.8957C13.1712 13.8957 14.0202 13.0466 14.0202 11.9993C14.0202 10.952 13.1712 10.103 12.1239 10.103C11.0765 10.103 10.2275 10.952 10.2275 11.9993C10.2275 13.0466 11.0765 13.8957 12.1239 13.8957Z" fill="white"/>
<path d="M14.5471 7.20752H9.69655C9.0684 7.20752 8.46598 7.45705 8.02182 7.90121C7.57765 8.34538 7.32813 8.9478 7.32812 9.57594V14.4249C7.32812 15.053 7.57765 15.6554 8.02182 16.0996C8.46598 16.5438 9.0684 16.7933 9.69655 16.7933H14.5471C15.1752 16.7933 15.7776 16.5438 16.2218 16.0996C16.666 15.6554 16.9155 15.053 16.9155 14.4249V9.57436C16.9151 8.94649 16.6654 8.34448 16.2212 7.90066C15.7771 7.45683 15.1749 7.20752 14.5471 7.20752ZM12.1218 15.1038C11.5078 15.1041 10.9075 14.9224 10.3968 14.5814C9.88608 14.2405 9.48796 13.7558 9.25277 13.1886C9.01757 12.6215 8.95588 11.9973 9.07547 11.395C9.19507 10.7927 9.49059 10.2395 9.92466 9.80517C10.3587 9.37088 10.9118 9.07508 11.514 8.95518C12.1162 8.83527 12.7405 8.89665 13.3078 9.13156C13.8751 9.36646 14.36 9.76433 14.7012 10.2749C15.0423 10.7854 15.2244 11.3856 15.2244 11.9996C15.2236 12.8224 14.8965 13.6112 14.3149 14.1931C13.7332 14.7751 12.9446 15.1026 12.1218 15.1038ZM15.2434 9.66278C15.0915 9.66309 14.9429 9.61831 14.8165 9.53411C14.69 9.44992 14.5914 9.33008 14.5332 9.1898C14.4749 9.04952 14.4595 8.8951 14.4891 8.7461C14.5187 8.59709 14.5918 8.46022 14.6992 8.3528C14.8066 8.24539 14.9435 8.17227 15.0925 8.14271C15.2415 8.11316 15.3959 8.12849 15.5362 8.18676C15.6765 8.24504 15.7963 8.34364 15.8805 8.47007C15.9647 8.59651 16.0095 8.74509 16.0092 8.89699C16.0088 9.09996 15.9279 9.2945 15.7844 9.43803C15.6409 9.58155 15.4464 9.66236 15.2434 9.66278Z" fill="white"/>
<path d="M12.125 0C9.75163 0 7.43155 0.703788 5.45816 2.02236C3.48477 3.34094 1.9467 5.21508 1.03845 7.4078C0.130199 9.60051 -0.107441 12.0133 0.355582 14.3411C0.818604 16.6688 1.96149 18.807 3.63972 20.4853C5.31795 22.1635 7.45615 23.3064 9.78392 23.7694C12.1117 24.2324 14.5245 23.9948 16.7172 23.0865C18.9099 22.1783 20.7841 20.6402 22.1026 18.6668C23.4212 16.6934 24.125 14.3734 24.125 12C24.125 8.8174 22.8607 5.76515 20.6103 3.51472C18.3598 1.26428 15.3076 0 12.125 0ZM18.125 14.4253C18.1242 15.3731 17.7473 16.2818 17.0771 16.9521C16.4068 17.6223 15.4981 17.9992 14.5503 18H9.69974C8.75204 17.9987 7.84352 17.6217 7.1734 16.9516C6.50328 16.2815 6.12626 15.373 6.125 14.4253V9.57473C6.12626 8.62704 6.50328 7.71852 7.1734 7.0484C7.84352 6.37828 8.75204 6.00125 9.69974 6H14.5503C15.498 6.00125 16.4065 6.37828 17.0766 7.0484C17.7467 7.71852 18.1237 8.62704 18.125 9.57473V14.4253Z" fill="white"/>
</svg>
