<svg width="25" height="24" viewBox="0 0 25 24" fill="none" xmlns="http://www.w3.org/2000/svg">
<path fill-rule="evenodd" clip-rule="evenodd" d="M12.125 0C18.7524 0 24.125 5.37255 24.125 12C24.125 18.6275 18.7524 24 12.125 24C5.4976 24 0.125 18.6274 0.125 12C0.125 5.3726 5.4976 0 12.125 0ZM9.589 11.2041L5.3553 7.8932C5.31969 8.00401 5.30157 8.1197 5.3016 8.2361V15.5335L9.589 11.2041ZM13.9386 11.6344L12.9638 12.3903C12.6883 12.6038 12.364 12.7107 12.0396 12.7107C11.7153 12.7107 11.3912 12.6038 11.1157 12.3903L10.141 11.6344L5.46885 16.3522C5.66685 16.6727 6.0216 16.8869 6.42465 16.8869H17.8253C18.1844 16.8869 18.505 16.7168 18.7109 16.4533L13.9386 11.6344ZM18.8593 7.79835L14.4908 11.2046L18.9484 15.7056V8.23615C18.9487 8.08568 18.9183 7.93673 18.8593 7.79835ZM6.4247 7.11315C6.18646 7.11298 5.95441 7.18899 5.76245 7.3301C7.68745 8.83555 9.60935 10.3432 11.5405 11.8404C11.6896 11.956 11.8646 12.0138 12.0396 12.0138C12.2148 12.0138 12.3901 11.956 12.5391 11.8404C14.497 10.3224 16.4492 8.7971 18.4028 7.2738C18.2286 7.16843 18.0289 7.11287 17.8253 7.11315H6.4247Z" fill="white"/>
</svg>
