<svg width="25" height="24" viewBox="0 0 25 24" fill="none" xmlns="http://www.w3.org/2000/svg">
<path d="M12.125 0C9.75163 0 7.43155 0.703788 5.45816 2.02236C3.48477 3.34094 1.9467 5.21508 1.03845 7.4078C0.130199 9.60051 -0.107441 12.0133 0.355582 14.3411C0.818604 16.6688 1.96149 18.807 3.63972 20.4853C5.31795 22.1635 7.45615 23.3064 9.78392 23.7694C12.1117 24.2324 14.5245 23.9948 16.7172 23.0865C18.9099 22.1783 20.7841 20.6402 22.1026 18.6668C23.4212 16.6934 24.125 14.3734 24.125 12C24.125 8.8174 22.8607 5.76515 20.6103 3.51472C18.3598 1.26428 15.3076 0 12.125 0ZM18.1013 8.36842C17.8177 8.79449 17.4711 9.17513 17.0734 9.49737C17.0233 9.53915 16.9831 9.59158 16.9558 9.65085C16.9285 9.71012 16.9147 9.77474 16.9155 9.84V9.87947C16.9109 10.7352 16.7537 11.5832 16.4513 12.3837C16.1397 13.2239 15.6768 13.9998 15.0855 14.6732C14.2909 15.5777 13.2687 16.2532 12.125 16.6295C11.3735 16.8734 10.5877 16.9955 9.79763 16.991C8.54417 16.9909 7.31305 16.6591 6.22921 16.0295C6.19038 16.0074 6.1598 15.9732 6.14213 15.9322C6.12447 15.8912 6.12067 15.8455 6.13132 15.8021C6.14225 15.7594 6.16715 15.7216 6.20206 15.6947C6.23697 15.6678 6.27988 15.6534 6.32395 15.6537H6.62395C7.57643 15.6553 8.50773 15.3728 9.29869 14.8421C8.8275 14.7652 8.38664 14.5599 8.02452 14.2487C7.66241 13.9376 7.39306 13.5326 7.24606 13.0784C7.23854 13.0557 7.23718 13.0313 7.2421 13.0079C7.24703 12.9845 7.25807 12.9627 7.2741 12.9449C7.29014 12.9271 7.3106 12.9139 7.3334 12.9066C7.35621 12.8992 7.38055 12.898 7.40395 12.9032C7.54764 12.9302 7.69352 12.9439 7.83974 12.9442H7.895C7.43948 12.7351 7.05431 12.3985 6.78613 11.9751C6.51795 11.5517 6.37826 11.0596 6.38395 10.5584C6.38411 10.535 6.39035 10.512 6.40204 10.4916C6.41374 10.4713 6.4305 10.4544 6.45069 10.4424C6.47088 10.4305 6.49381 10.424 6.51726 10.4236C6.54071 10.4232 6.56386 10.4288 6.58448 10.44C6.76971 10.5434 6.96847 10.6205 7.175 10.6689C6.76714 10.2652 6.50478 9.73745 6.42906 9.16854C6.35334 8.59963 6.46853 8.02167 6.75658 7.52526C6.76763 7.50629 6.78312 7.49028 6.80172 7.47861C6.82031 7.46694 6.84146 7.45995 6.86335 7.45824C6.88524 7.45654 6.90721 7.46016 6.92739 7.46881C6.94757 7.47746 6.96535 7.49087 6.97921 7.50789C7.55007 8.21324 8.25652 8.79701 9.05683 9.22468C9.85713 9.65236 10.735 9.91528 11.6387 9.99789H11.6513C11.6646 9.99751 11.6777 9.99442 11.6897 9.98883C11.7018 9.98323 11.7125 9.97524 11.7214 9.96535C11.7303 9.95545 11.737 9.94385 11.7413 9.93126C11.7455 9.91867 11.7471 9.90534 11.7461 9.8921C11.7109 9.57522 11.7312 9.25465 11.8061 8.94473C11.9079 8.52349 12.1171 8.13577 12.4131 7.81925C12.7091 7.50274 13.082 7.26819 13.4955 7.13842C13.7608 7.05555 14.0371 7.01297 14.315 7.0121C14.9452 7.01138 15.5539 7.24105 16.0266 7.65789C16.0878 7.71267 16.1671 7.74302 16.2492 7.74316C16.2759 7.74258 16.3024 7.73887 16.3282 7.7321C16.772 7.61975 17.1974 7.44428 17.5913 7.21105C17.6149 7.19652 17.6423 7.18963 17.67 7.19132C17.6976 7.193 17.724 7.20319 17.7456 7.22048C17.7672 7.23776 17.783 7.26131 17.7907 7.28789C17.7984 7.31447 17.7977 7.34278 17.7887 7.36894C17.6573 7.78229 17.4231 8.15552 17.1082 8.45368C17.3921 8.38675 17.6691 8.29318 17.9355 8.17421C17.9616 8.1644 17.9902 8.16288 18.0172 8.16985C18.0442 8.17682 18.0684 8.19195 18.0865 8.21317C18.1046 8.23439 18.1158 8.26068 18.1184 8.28846C18.1211 8.31624 18.1151 8.34416 18.1013 8.36842Z" fill="white"/>
</svg>
