<svg width="25" height="24" viewBox="0 0 25 24" fill="none" xmlns="http://www.w3.org/2000/svg">
<path d="M15.4369 8.68481L15.4132 8.66112C14.6283 7.88045 13.5912 7.40471 12.4875 7.31913C11.3838 7.23354 10.2857 7.54371 9.38987 8.19406C8.49405 8.8444 7.85904 9.79245 7.59858 10.8684C7.33813 11.9443 7.46925 13.0778 7.96845 14.0659L8.17371 14.4701L7.79003 16.3301V16.3538L9.63266 15.9164L10.0527 16.1248C10.9268 16.5587 11.9151 16.7074 12.8782 16.5499C13.8413 16.3924 14.7307 15.9366 15.4211 15.2469C16.2879 14.3759 16.7758 13.1979 16.7788 11.9691C16.7817 10.7403 16.2995 9.55997 15.4369 8.68481ZM15.2506 13.8953C15.0248 14.2506 14.6663 14.6848 14.2195 14.7938C13.43 14.9848 12.2284 14.7938 10.7237 13.4027L10.7048 13.3853C9.39582 12.1632 9.04845 11.1448 9.12582 10.338C9.17161 9.88007 9.55371 9.46639 9.87582 9.19481C9.9269 9.1513 9.9875 9.12041 10.0527 9.10464C10.1179 9.08887 10.186 9.08867 10.2513 9.10404C10.3166 9.1194 10.3774 9.14992 10.4287 9.19312C10.4801 9.23631 10.5205 9.29098 10.5469 9.3527L11.0316 10.458C11.0633 10.5285 11.0751 10.6063 11.0659 10.6831C11.0568 10.7598 11.0269 10.8327 10.9795 10.8938L10.7332 11.2095C10.682 11.2751 10.6515 11.3544 10.6456 11.4374C10.6397 11.5203 10.6586 11.6032 10.7 11.6753C10.9341 12.0196 11.2141 12.3304 11.5321 12.599C11.8736 12.9295 12.262 13.2077 12.6848 13.4248C12.7618 13.4561 12.8463 13.4636 12.9277 13.4464C13.009 13.4293 13.0833 13.3882 13.1411 13.3285L13.4237 13.0427C13.4765 12.9822 13.5451 12.9378 13.6219 12.9143C13.6986 12.8909 13.7804 12.8894 13.8579 12.9101L15.0106 13.2416C15.0746 13.2604 15.1335 13.2938 15.1824 13.3392C15.2314 13.3845 15.2692 13.4407 15.2928 13.5031C15.3163 13.5656 15.3251 13.6327 15.3183 13.6991C15.3115 13.7655 15.2894 13.8294 15.2537 13.8859L15.2506 13.8953Z" fill="white"/>
<path d="M12.125 0C9.75163 0 7.43155 0.703788 5.45816 2.02236C3.48477 3.34094 1.9467 5.21508 1.03845 7.4078C0.130199 9.60051 -0.107441 12.0133 0.355582 14.3411C0.818604 16.6688 1.96149 18.807 3.63972 20.4853C5.31795 22.1635 7.45615 23.3064 9.78392 23.7694C12.1117 24.2324 14.5245 23.9948 16.7172 23.0865C18.9099 22.1783 20.7841 20.6402 22.1026 18.6668C23.4212 16.6934 24.125 14.3734 24.125 12C24.125 8.8174 22.8607 5.76515 20.6103 3.51472C18.3598 1.26428 15.3076 0 12.125 0ZM18.0729 12.1405C18.0405 13.1371 17.7583 14.1096 17.2522 14.9688C16.7462 15.828 16.0325 16.5463 15.1765 17.0579C14.3206 17.5694 13.35 17.8578 12.3536 17.8967C11.3572 17.9355 10.3671 17.7234 9.47395 17.28L6.47395 17.9937C6.42859 18.0041 6.38116 18.0006 6.3378 17.9837C6.29444 17.9668 6.25716 17.9373 6.23079 17.8989C6.21277 17.8733 6.20024 17.8442 6.19399 17.8135C6.18775 17.7828 6.18791 17.7512 6.19448 17.7205L6.82606 14.6542C6.41322 13.8453 6.19094 12.9526 6.17626 12.0445C6.16157 11.1365 6.35485 10.2371 6.74132 9.41524C7.12778 8.59338 7.69717 7.87085 8.4059 7.30296C9.11463 6.73507 9.9439 6.33687 10.8302 6.13886C11.7166 5.94084 12.6365 5.94826 13.5195 6.16054C14.4025 6.37283 15.2253 6.78434 15.9247 7.36359C16.6242 7.94284 17.1819 8.67446 17.555 9.50244C17.9282 10.3304 18.107 11.2328 18.0776 12.1405H18.0729Z" fill="white"/>
</svg>
